<svg version="1.1" viewBox="0.0 0.0 1301.244094488189 294.62729658792654" fill="none" stroke="none" stroke-linecap="square" stroke-miterlimit="10" xmlns:xlink="http://www.w3.org/1999/xlink" xmlns="http://www.w3.org/2000/svg"><clipPath id="p.0"><path d="m0 0l1301.2441 0l0 294.6273l-1301.2441 0l0 -294.6273z" clip-rule="nonzero"/></clipPath><g clip-path="url(#p.0)"><path fill="#000000" fill-opacity="0.0" d="m0 0l1301.2441 0l0 294.6273l-1301.2441 0z" fill-rule="evenodd"/><path fill="#000000" fill-opacity="0.0" d="m275.88058 190.73355l0 0c0 -5.618515 -4.554718 -10.173218 -10.173248 -10.173218l0 0c-2.6980896 0 -5.2857056 1.0718079 -7.1935425 2.97966c-1.9078674 1.9078522 -2.9796753 4.495453 -2.9796753 7.1935577l0 0c0 5.6185303 4.554718 10.173233 10.173218 10.173233l0 0c5.6185303 0 10.173248 -4.5547028 10.173248 -10.173233z" fill-rule="evenodd"/><path fill="#39a2c6" d="m41.001408 173.94226l0 -86.39371l0 0c0 -47.71392 45.970135 -86.3937 102.67717 -86.3937c56.70703 0 102.67717 38.67978 102.67717 86.3937l0 86.39371z" fill-rule="evenodd"/><path fill="#cfe2f3" d="m116.466545 179.25572l0 0c0 -15.168259 12.296303 -27.46457 27.464561 -27.46457l0 0c7.2840576 0 14.269775 2.8935852 19.42038 8.044189c5.1506042 5.1506042 8.044189 12.136322 8.044189 19.42038l0 0c0 15.168259 -12.29631 27.46457 -27.46457 27.46457l0 0c-15.168259 0 -27.464561 -12.29631 -27.464561 -27.46457z" fill-rule="evenodd"/><path fill="#000000" fill-opacity="0.0" d="m265.70734 180.56033c0 -26.884628 -30.440933 -50.174744 -60.88188 -53.769234c-30.440933 -3.59449 -60.88188 12.50666 -60.88188 25.013329" fill-rule="evenodd"/><path stroke="#39a2c6" stroke-width="24.0" stroke-linejoin="round" stroke-linecap="butt" d="m265.70734 180.56033c0 -26.884628 -30.440933 -50.174744 -60.88188 -53.769234c-30.440933 -3.59449 -60.88188 12.50666 -60.88188 25.013329" fill-rule="evenodd"/><path fill="#000000" fill-opacity="0.0" d="m20.844963 180.55905c0 -26.883896 30.771652 -50.173294 61.543304 -53.76779c30.771652 -3.5944824 61.543312 12.505951 61.543312 25.011887" fill-rule="evenodd"/><path stroke="#39a2c6" stroke-width="24.0" stroke-linejoin="round" stroke-linecap="butt" d="m20.844963 180.55905c0 -26.883896 30.771652 -50.173294 61.543304 -53.76779c30.771652 -3.5944824 61.543312 12.505951 61.543312 25.011887" fill-rule="evenodd"/><path fill="#39a2c6" d="m169.48425 194.68863l49.669296 0l0 54.92914l-49.669296 0z" fill-rule="evenodd"/><path fill="#39a2c6" d="m66.05118 194.68869l49.669296 0l0 54.92914l-49.669296 0z" fill-rule="evenodd"/><path fill="#39a2c6" d="m41.001312 129.4901l0 0c0 -11.193771 9.074348 -20.26812 20.268124 -20.26812l165.32202 0c5.3754425 0 10.530716 2.1353836 14.331726 5.9363937c3.8010101 3.8010101 5.936386 8.956284 5.936386 14.331726l0 81.07005c0 11.193771 -9.074341 20.268127 -20.268112 20.268127l-165.32202 0c-11.193775 0 -20.268124 -9.074356 -20.268124 -20.268127z" fill-rule="evenodd"/><path fill="#434343" d="m166.57086 259.563l0 -15.023621l0 0c0 -8.2973175 12.352722 -15.023621 27.59056 -15.023621c15.237839 0 27.590546 6.726303 27.590546 15.023621l0 15.023621z" fill-rule="evenodd"/><path stroke="#434343" stroke-width="12.0" stroke-linejoin="round" stroke-linecap="butt" d="m166.57086 259.563l0 -15.023621l0 0c0 -8.2973175 12.352722 -15.023621 27.59056 -15.023621c15.237839 0 27.590546 6.726303 27.590546 15.023621l0 15.023621z" fill-rule="evenodd"/><path fill="#434343" d="m1.3986292 175.4354l0 0c0 -15.168259 12.296306 -27.46457 27.464565 -27.46457l0 0c7.2840557 0 14.269777 2.8935852 19.420382 8.044189c5.1506042 5.1506042 8.044186 12.136322 8.044186 19.42038l0 0c0 15.168259 -12.296307 27.46457 -27.464567 27.46457l0 0c-15.168261 0 -27.464565 -12.29631 -27.464565 -27.46457z" fill-rule="evenodd"/><path fill="#000000" fill-opacity="0.0" d="m10.671734 190.73228l0 0c0 -5.618515 4.5547094 -10.173233 10.173229 -10.173233l0 0c2.6981068 0 5.2857075 1.0718231 7.1935577 2.9796753c1.9078503 1.9078522 2.9796696 4.495453 2.9796696 7.1935577l0 0c0 5.618515 -4.5547085 10.173233 -10.173227 10.173233l0 0c-5.61852 0 -10.173229 -4.554718 -10.173229 -10.173233z" fill-rule="evenodd"/><path fill="#434343" d="m285.95828 175.43439l0 0c0 -15.168259 -12.296295 -27.46457 -27.46457 -27.46457l0 0c-7.2840576 0 -14.269775 2.8935852 -19.42038 8.044189c-5.1506042 5.1506042 -8.044189 12.136322 -8.044189 19.42038l0 0c0 15.168259 12.29631 27.46457 27.46457 27.46457l0 0c15.168274 0 27.46457 -12.29631 27.46457 -27.46457z" fill-rule="evenodd"/><path fill="#000000" fill-opacity="0.0" d="m186.98764 105.12346l39.968506 0l0 32.0l-39.968506 0z" fill-rule="evenodd"/><path fill="#ffffff" d="m146.37758 67.83676l0 0c0 -22.856758 18.529068 -41.385826 41.38582 -41.385826l0 0c10.976212 0 21.502853 4.360281 29.264206 12.12163c7.7613525 7.761345 12.121628 18.287994 12.121628 29.264194l0 0c0 22.856766 -18.529068 41.385826 -41.385834 41.385826l0 0c-22.85675 0 -41.38582 -18.52906 -41.38582 -41.385826z" fill-rule="evenodd"/><path fill="#434343" d="m161.09328 67.84381l0 0c0 -14.733391 11.943787 -26.677166 26.67717 -26.677166l0 0c7.075226 0 13.860672 2.8106232 18.863602 7.8135605c5.002945 5.0029373 7.813568 11.78838 7.813568 18.863605l0 0c0 14.733391 -11.943771 26.677162 -26.67717 26.677162l0 0c-14.733383 0 -26.67717 -11.943771 -26.67717 -26.677162z" fill-rule="evenodd"/><path fill="#434343" d="m170.78923 67.82323l0 0c0 -9.367096 7.5935364 -16.960629 16.960632 -16.960629l0 0c4.4982452 0 8.812241 1.7869186 11.992981 4.9676514c3.1807404 3.1807365 4.9676514 7.4947395 4.9676514 11.992977l0 0c0 9.367096 -7.5935364 16.960632 -16.960632 16.960632l0 0c-9.367096 0 -16.960632 -7.5935364 -16.960632 -16.960632z" fill-rule="evenodd"/><path fill="#ffffff" d="m189.80927 53.055897l0 0c0 -5.6967964 4.618164 -10.3149605 10.314957 -10.3149605l0 0c2.7357025 0 5.3593597 1.08675 7.2937927 3.0211792c1.9344177 1.934433 3.0211792 4.5580826 3.0211792 7.2937813l0 0c0 5.6967926 -4.618164 10.3149605 -10.314972 10.3149605l0 0c-5.6967926 0 -10.314957 -4.618168 -10.314957 -10.3149605z" fill-rule="evenodd"/><path fill="#ffffff" d="m59.25828 67.83676l0 0c0 -22.856758 18.529064 -41.385826 41.38583 -41.385826l0 0c10.976204 0 21.502846 4.360281 29.264198 12.12163c7.7613525 7.761345 12.121628 18.287994 12.121628 29.264194l0 0c0 22.856766 -18.529068 41.385826 -41.385826 41.385826l0 0c-22.856766 0 -41.38583 -18.52906 -41.38583 -41.385826z" fill-rule="evenodd"/><path fill="#434343" d="m73.97399 67.84381l0 0c0 -14.733391 11.943771 -26.677166 26.677162 -26.677166l0 0c7.075226 0 13.860664 2.8106232 18.86361 7.8135605c5.0029373 5.0029373 7.8135605 11.78838 7.8135605 18.863605l0 0c0 14.733391 -11.943779 26.677162 -26.67717 26.677162l0 0c-14.733391 0 -26.677162 -11.943771 -26.677162 -26.677162z" fill-rule="evenodd"/><path fill="#434343" d="m83.669945 67.82323l0 0c0 -9.367096 7.5935287 -16.960629 16.960625 -16.960629l0 0c4.4982452 0 8.812248 1.7869186 11.992981 4.9676514c3.1807327 3.1807365 4.9676514 7.4947395 4.9676514 11.992977l0 0c0 9.367096 -7.5935287 16.960632 -16.960632 16.960632l0 0c-9.367096 0 -16.960625 -7.5935364 -16.960625 -16.960632z" fill-rule="evenodd"/><path fill="#ffffff" d="m102.68997 53.055897l0 0c0 -5.6967964 4.618164 -10.3149605 10.314964 -10.3149605l0 0c2.735695 0 5.3593445 1.08675 7.2937775 3.0211792c1.934433 1.934433 3.0211792 4.5580826 3.0211792 7.2937813l0 0c0 5.6967926 -4.618164 10.3149605 -10.314957 10.3149605l0 0c-5.6968 0 -10.314964 -4.618168 -10.314964 -10.3149605z" fill-rule="evenodd"/><path fill="#434343" d="m63.295277 259.563l0 -15.023621l0 0c0 -8.2973175 12.352711 -15.023621 27.59055 -15.023621c15.237839 0 27.590553 6.726303 27.590553 15.023621l0 15.023621z" fill-rule="evenodd"/><path stroke="#434343" stroke-width="12.0" stroke-linejoin="round" stroke-linecap="butt" d="m63.295277 259.563l0 -15.023621l0 0c0 -8.2973175 12.352711 -15.023621 27.59055 -15.023621c15.237839 0 27.590553 6.726303 27.590553 15.023621l0 15.023621z" fill-rule="evenodd"/><path fill="#434343" d="m96.26084 141.7798l0 0c0 -7.6190643 6.1764755 -13.7955475 13.7955475 -13.7955475l67.24354 0c3.6588135 0 7.1677704 1.4534607 9.754929 4.040619c2.5871735 2.5871735 4.040634 6.0961304 4.040634 9.754929l0 55.180557c0 7.6190643 -6.176483 13.7955475 -13.795563 13.7955475l-67.24354 0c-7.619072 0 -13.7955475 -6.176483 -13.7955475 -13.7955475z" fill-rule="evenodd"/><path stroke="#434343" stroke-width="4.0" stroke-linejoin="round" stroke-linecap="butt" d="m96.26084 141.7798l0 0c0 -7.6190643 6.1764755 -13.7955475 13.7955475 -13.7955475l67.24354 0c3.6588135 0 7.1677704 1.4534607 9.754929 4.040619c2.5871735 2.5871735 4.040634 6.0961304 4.040634 9.754929l0 55.180557c0 7.6190643 -6.176483 13.7955475 -13.795563 13.7955475l-67.24354 0c-7.619072 0 -13.7955475 -6.176483 -13.7955475 -13.7955475z" fill-rule="evenodd"/><path fill="#000000" fill-opacity="0.0" d="m345.59152 -58.24803l1016.5669 0l0 358.74017l-1016.5669 0z" fill-rule="evenodd"/><path fill="#434343" d="m436.5759 235.78633q-29.71875 0 -49.25 -18.0q-7.390625 -6.46875 -11.671875 -13.859375q-4.265625 -7.40625 -4.265625 -16.25q0 -1.390625 0 -3.328125q0 -1.953125 2.265625 -2.359375q0.34375 -14.40625 3.046875 -26.765625q2.703125 -12.359375 5.546875 -22.3125q3.09375 -11.234375 8.703125 -29.890625q5.609375 -18.65625 13.421875 -44.859375q1.671875 -6.4375 4.484375 -15.859375q2.8125 -9.4375 6.46875 -21.765625q2.515625 -8.3125 7.8125 -12.1875q5.3125 -3.890625 14.234375 -3.171875q0.328125 0 1.84375 0q1.53125 0 3.328125 0.890625q-1.421875 2.859375 -0.890625 1.265625q0.53125 -1.59375 1.265625 -1.59375q23.5625 1.453125 23.5625 23.1875q0 5.625 -1.3125 9.953125q-1.171875 4.609375 -3.484375 11.09375q-2.296875 6.484375 -5.40625 14.40625q-11.671875 29.5 -20.71875 58.125q-9.03125 28.625 -15.421875 56.15625q-1.53125 6.34375 -1.53125 13.21875q0 8.171875 6.765625 8.171875q2.21875 0.53125 2.5625 -0.140625q4.28125 -0.625 12.3125 -2.28125q8.046875 -1.65625 20.34375 -4.171875l25.46875 -5.40625q5.984375 5.96875 9.4375 9.8125q3.46875 3.828125 3.46875 8.015625q0 4.953125 -3.9375 8.890625q-1.40625 1.390625 -3.9375 3.328125q-2.53125 1.9375 -6.578125 5.046875q-2.0625 -2.828125 -0.296875 0.734375q-2.765625 2.765625 -5.015625 3.53125l-7.984375 2.28125q-10.015625 2.859375 -18.125 4.46875q-8.09375 1.625 -16.515625 1.625zm166.4606 -21.546875q-3.40625 0 -6.328125 -2.921875q-2.90625 -2.9375 -4.234375 -5.140625q-1.4375 -2.84375 -2.453125 -6.0625q-1.015625 -3.21875 -2.328125 -6.609375l-2.28125 -5.453125l4.5625 -2.375l3.140625 4.078125l-4.703125 2.921875q-1.6875 1.421875 -3.875 2.765625q-2.1875 1.34375 -4.171875 2.1875q-7.46875 4.5625 -18.0625 4.5625q-12.875 0 -24.3125 -7.140625q-11.4375 -7.15625 -18.03125 -19.359375q-10.25 -17.8125 -10.25 -41.765625q0 -5.953125 0.875 -13.1875q0.875 -7.234375 2.234375 -15.75q0.46875 -6.953125 7.953125 -11.515625q5.84375 -4.015625 12.96875 -4.015625q3.9375 0 7.5 1.078125q8.34375 2.328125 12.71875 6.484375q4.375 4.15625 4.375 11.421875q0 2.59375 -0.984375 7.125q-2.6875 12.125 -3.21875 24.203125q-0.265625 6.3125 0.890625 12.328125q1.15625 6.015625 3.21875 11.6875q1.546875 4.140625 1.546875 4.0625q0.171875 0 2.859375 -3.015625q9.734375 -11.5625 14.421875 -23.046875q4.703125 -11.484375 5.734375 -23.78125q1.046875 -11.078125 4.5 -14.53125q2.078125 -2.0625 6.609375 -2.984375q1.96875 -0.390625 4.078125 -0.390625q2.109375 0 4.5 0q5.484375 0.3125 9.421875 0.890625q3.9375 0.578125 6.96875 3.84375q3.03125 3.25 4.984375 11.078125l-0.296875 13.875q0 1.890625 0 5.21875q0 3.328125 -0.296875 7.34375l-1.390625 37.484375q-0.609375 11.0 -6.484375 27.046875q-1.65625 2.46875 -5.234375 4.65625q-3.5625 2.1875 -7.125 2.703125zm84.42059 6.4375q-18.765625 0 -32.3125 -14.515625q-14.640625 -16.5 -14.953125 -35.984375q-0.625 -21.203125 17.265625 -42.734375q8.046875 -9.984375 18.40625 -13.484375q10.359375 -3.5 23.640625 -3.5q3.453125 0 4.15625 -0.703125q0.71875 -0.71875 0.390625 -4.46875q-1.125 -14.09375 -1.84375 -27.0625q-0.703125 -12.96875 -0.96875 -24.59375q0 -3.484375 0.578125 -8.375q0.59375 -4.90625 1.765625 -11.015625q1.53125 -7.625 7.328125 -12.453125q5.796875 -4.84375 13.796875 -4.84375q3.546875 0 4.3125 1.421875q17.75 2.375 17.75 20.828125l0.5625 17.546875q1.671875 52.546875 3.34375 78.453125q0.484375 6.59375 3.203125 13.078125q2.734375 6.484375 8.578125 18.46875q0.265625 0.59375 4.984375 2.765625l3.0 1.359375q2.953125 1.25 4.46875 2.78125q2.84375 1.890625 5.375 5.234375q2.546875 3.328125 8.65625 11.5q-8.75 2.1875 -9.703125 2.78125q-0.9375 0.578125 -2.421875 1.171875q-3.90625 2.28125 -6.53125 2.71875q-4.6875 0.9375 -9.1875 0.9375q-10.8125 0 -19.984375 -5.359375q-9.171875 -5.375 -12.40625 -10.203125l0.890625 0.328125q-9.4375 8.78125 2.515625 -11.296875q-9.953125 34.421875 -20.8125 41.828125q-10.84375 7.390625 -23.84375 7.390625zm-2.75 -35.6875q5.03125 -8.515625 9.515625 -20.515625q4.484375 -12.0 4.484375 -24.390625q0.234375 -0.28125 0.234375 -0.046875q-1.25 0 -3.703125 1.390625q-5.4375 3.5 -9.296875 11.796875q-3.859375 8.296875 -3.859375 17.375q0 12.0 2.625 14.390625zm171.58746 39.609375q-14.03125 0 -29.390625 -6.34375q-16.3125 -6.84375 -30.65625 -44.09375q-0.359375 -4.265625 -0.515625 -6.90625q-0.140625 -2.65625 -0.140625 -4.765625q0 -10.40625 1.96875 -19.96875q1.984375 -9.578125 9.9375 -23.40625q1.0 -2.0 4.546875 -5.078125q3.5625 -3.078125 9.25 -7.625q12.796875 -10.234375 31.359375 -10.234375q9.375 0 20.953125 3.96875l9.5625 3.359375q9.25 3.3125 24.125 20.046875l5.296875 9.6875q2.703125 4.40625 5.9375 20.59375q-1.90625 8.9375 -3.09375 15.421875q-1.1875 6.484375 -4.296875 13.171875q-3.09375 6.671875 -9.71875 14.921875q-6.625 8.25 -19.5625 20.875q-12.390625 6.375 -25.5625 6.375zm-2.046875 -35.984375q10.0625 -1.578125 13.484375 -5.984375q3.625 -4.328125 10.453125 -34.515625q0 -13.859375 -13.15625 -24.15625q-2.140625 -1.6875 -5.421875 -1.421875q-3.28125 0.265625 -6.328125 2.734375q-6.3125 5.25 -9.71875 9.25q-3.40625 3.984375 -4.890625 11.359375q-1.46875 7.375 -1.46875 22.3125q0.15625 0.609375 0.46875 2.328125q0.3125 1.71875 0.625 4.265625q0.21875 2.984375 2.578125 7.90625q2.296875 3.078125 5.0625 4.703125q2.78125 1.625 8.3125 1.21875zm112.8006 29.53125q-3.28125 0 -7.453125 0.34375q-4.15625 0.328125 -8.984375 -1.96875q-4.8125 -2.296875 -7.046875 -9.96875q-0.671875 -4.609375 -0.828125 -8.453125q-0.140625 -3.859375 4.0 -5.640625l-5.828125 4.140625l0 -126.234375q0 -2.53125 -0.921875 -7.375q-0.90625 -4.84375 -2.140625 -10.046875q-1.21875 -5.21875 -2.09375 -8.40625q-4.84375 -24.890625 18.671875 -28.671875q9.203125 -0.8125 16.1875 5.609375q6.984375 6.40625 7.6875 16.96875q2.265625 18.078125 2.546875 38.609375q0.28125 20.515625 -0.28125 40.765625q-0.5625 20.25 -1.390625 37.9375q-0.5625 12.109375 -0.28125 23.8125q0.28125 11.6875 0.28125 23.8125q-0.90625 4.53125 -3.96875 9.03125q-3.0625 4.484375 -8.15625 5.734375zm97.565 69.45314q-8.578125 0 -13.125 -4.5625q-4.53125 -4.546875 -6.3125 -13.0625q-1.109375 -6.375 -3.328125 -15.95314q-2.21875 -9.5625 -5.328125 -22.546875l-9.078125 -47.09375q-0.203125 -11.03125 -10.140625 -11.03125q-6.703125 0 -10.609375 -2.921875q-2.3125 -1.921875 -4.515625 -4.78125q-2.1875 -2.859375 -2.1875 -6.515625q0 -3.828125 3.328125 -7.15625q3.34375 -3.328125 6.953125 -3.9375q7.921875 -1.09375 10.046875 -3.65625q2.140625 -2.5625 2.359375 -9.53125l0.5625 -17.875q0.265625 -11.8125 0.828125 -24.3125q0.578125 -12.5 2.015625 -22.234375q2.59375 -20.734375 29.015625 -20.734375q2.234375 0 4.40625 0q2.1875 0 3.515625 0.328125q4.53125 0.328125 10.328125 3.15625q5.796875 2.8125 10.734375 7.390625q4.953125 4.5625 5.359375 10.4375q4.234375 21.921875 -17.9375 24.015625q-4.703125 -1.078125 -5.3125 -0.6875q-0.59375 0.375 -1.015625 2.296875q-0.40625 1.90625 -0.890625 5.484375q0 1.71875 -0.15625 4.375q-0.140625 2.640625 -0.4375 6.1875q-0.796875 6.484375 -0.796875 13.125q0 9.40625 0.78125 11.203125q-1.46875 0.859375 -0.734375 -0.796875q3.03125 0 10.875 -1.671875l7.046875 0q19.484375 0 22.515625 9.59375q2.421875 -0.90625 4.96875 3.1875q0.515625 1.03125 1.078125 1.875q0.5625 0.828125 3.1875 6.078125l-6.921875 5.1875q-2.59375 2.578125 -6.875 3.546875q-3.140625 0.5625 -8.046875 1.546875q-4.90625 0.984375 -11.21875 2.078125q-1.265625 0.328125 -3.75 0.625q-2.484375 0.28125 -5.359375 0.796875q-5.3125 1.03125 -5.3125 6.03125q0 0.265625 0.109375 1.46875q0.125 1.1875 0.359375 2.8125q3.328125 14.953125 5.578125 26.359375q2.25 11.390625 3.640625 18.9375l5.03125 24.578125q1.4375 6.9062653 2.171875 12.375015q0.75 5.484375 0.75 9.515625q0 7.640625 -4.1875 12.046875q-4.1875 4.421875 -13.96875 4.421875z" fill-rule="nonzero"/><path fill="#39a2c6" d="m1206.6664 217.59883q-27.71875 -1.78125 -44.9375 -10.6875q-17.203125 -8.90625 -25.90625 -22.8125q-8.703125 -13.90625 -11.375 -29.6875q-2.65625 -15.796875 -2.65625 -31.0625q-0.640625 -5.40625 2.359375 -19.03125q3.015625 -13.640625 11.25 -28.375q18.15625 -33.0625 57.484375 -46.265625q12.8125 -1.9375 24.671875 0.84375q11.875 2.78125 20.90625 9.03125q9.046875 6.25 11.625 16.15625q0.34375 2.0625 0.5 3.4375q0.171875 1.359375 0.171875 2.265625q0 14.21875 -14.5 14.21875q-1.40625 0 -3.140625 0q-1.734375 0 -2.515625 -0.625q-2.234375 0.34375 -4.890625 -1.75q-6.125 -3.5 -12.40625 -3.5q-11.765625 0 -24.0625 13.046875q-22.203125 22.96875 -22.203125 55.328125q0 11.671875 2.40625 22.5625q4.328125 20.328125 23.40625 20.328125q3.71875 0 8.40625 -0.78125q8.71875 -1.09375 14.453125 -2.515625q5.734375 -1.4375 10.671875 -3.71875q4.953125 -2.28125 10.96875 -6.703125q6.03125 -4.421875 15.15625 -11.5625q1.953125 -1.203125 5.34375 -4.609375q3.40625 -3.40625 8.671875 -8.6875l5.609375 -5.875q8.46875 -8.46875 15.359375 -8.46875q5.4375 0 12.3125 4.6875q8.359375 5.984375 8.359375 15.421875q0 6.484375 -3.953125 11.53125q-0.796875 1.59375 -6.359375 9.203125q-2.65625 3.828125 -7.5625 9.609375q-4.90625 5.765625 -12.671875 13.8125q-29.90625 21.921875 -45.515625 23.796875q-6.296875 0.578125 -12.59375 1.015625q-6.28125 0.421875 -12.84375 0.421875z" fill-rule="nonzero"/><path fill="#434343" d="m700.2688 190.63431l0 0c0 -9.367096 4.618164 -16.960617 10.315002 -16.960617l0 0c2.7356567 0 5.359314 1.786911 7.293762 4.9676514c1.9344482 3.180725 3.0211792 7.4947357 3.0211792 11.992966l0 0c0 9.367096 -4.618164 16.960632 -10.314941 16.960632l0 0c-5.6968384 0 -10.315002 -7.5935364 -10.315002 -16.960632z" fill-rule="evenodd"/></g></svg>